<svg fill="none" height="24" viewBox="0 0 24 24" width="24" xmlns="http://www.w3.org/2000/svg"><path d="m11 15-2-2m0 0 2-2m-2 2h4c1.1046 0 2 .8954 2 2v1m1-10-.2706-.81193c-.2623-.78682-.3935-1.18023-.6367-1.47109-.2148-.25685-.4906-.45566-.8022-.5782-.3529-.13878-.7675-.13878-1.5969-.13878h-1.3872c-.8294 0-1.244 0-1.59689.13878-.31159.12254-.58743.32135-.80222.5782-.24324.29086-.37437.68427-.63665 1.47109l-.27064.81193m-4 0h16m-2 0v10.2c0 1.6802 0 2.5202-.327 3.162-.2876.5645-.7465 1.0234-1.311 1.311-.6418.327-1.4818.327-3.162.327h-2.4c-1.68016 0-2.52024 0-3.16197-.327-.56449-.2876-1.02343-.7465-1.31105-1.311-.32698-.6418-.32698-1.4818-.32698-3.162v-10.2" stroke="#000" stroke-linecap="round" stroke-linejoin="round" stroke-width="2"/></svg>